<svg width="177" height="34" viewBox="0 0 177 34" fill="none" xmlns="http://www.w3.org/2000/svg">
<path d="M14.5955 27.0112C15.292 27.0112 15.9532 26.9491 16.5754 26.8103C17.2062 26.6715 17.7664 26.4535 18.2388 26.1296C18.7113 25.8191 19.1022 25.3929 19.3871 24.8498C19.6721 24.3128 19.8085 23.615 19.8085 22.7712C19.8085 21.1187 19.3433 19.9449 18.4191 19.2325C17.4924 18.5299 16.2564 18.1804 14.7367 18.1804H7.06027V27.0112H14.5955ZM14.2058 13.3607C15.4564 13.3607 16.4914 13.0636 17.3122 12.4608C18.1244 11.869 18.5189 10.8888 18.5189 9.54441C18.5189 8.79918 18.3874 8.1818 18.1244 7.70324C17.8528 7.22468 17.4924 6.84963 17.037 6.58782C16.5852 6.31505 16.075 6.12631 15.4819 6.02524C14.9011 5.91077 14.291 5.86694 13.6663 5.86694H7.06027V13.3607H14.2058ZM15.1191 0.404297C16.6522 0.404297 18.0367 0.537027 19.3019 0.811011C20.5598 1.07769 21.6338 1.52337 22.541 2.13466C23.4348 2.74473 24.1338 3.55694 24.6342 4.57982C25.1225 5.58808 25.3685 6.84963 25.3685 8.34254C25.3685 9.95722 25.002 11.3052 24.2689 12.3829C23.531 13.4593 22.446 14.3422 20.9969 15.0278C22.9709 15.5952 24.4321 16.5949 25.4014 18.0148C26.3756 19.4444 26.8517 21.1565 26.8517 23.162C26.8517 24.7889 26.54 26.1881 25.9189 27.3656C25.2906 28.5577 24.4358 29.5246 23.3824 30.2698C22.3206 31.0224 21.1005 31.574 19.7342 31.9332C18.3825 32.2924 16.9797 32.4726 15.5428 32.4726H0V0.404297H15.1191Z" fill="black"/>
<path d="M44.2452 14.7052C43.4865 13.8662 42.2031 13.412 40.6371 13.412C39.6179 13.412 38.774 13.5837 38.0994 13.9332C37.4394 14.2778 36.8975 14.7076 36.4847 15.213C36.0731 15.7269 35.7918 16.2687 35.6287 16.8484C35.4655 17.4134 35.3681 17.926 35.3376 18.379H45.715C45.5627 16.7522 45.0062 15.5503 44.2452 14.7052ZM36.917 26.9042C37.8717 27.837 39.2526 28.307 41.0414 28.307C42.3273 28.307 43.4391 27.9819 44.3718 27.3328C45.2961 26.6862 45.8586 25.9933 46.0766 25.2749H51.6927C50.7904 28.0695 49.4204 30.0654 47.5513 31.266C45.7052 32.4728 43.4525 33.0743 40.8283 33.0743C38.9993 33.0743 37.353 32.7772 35.8759 32.1951C34.3988 31.6045 33.164 30.7765 32.1253 29.6976C31.1134 28.6139 30.328 27.3328 29.7678 25.829C29.2138 24.3324 28.9337 22.6751 28.9337 20.879C28.9337 19.1425 29.2247 17.5205 29.791 16.0215C30.3706 14.5177 31.1706 13.2196 32.2227 12.131C33.2785 11.0362 34.5291 10.1729 35.9855 9.54211C37.4431 8.91255 39.0492 8.59717 40.8283 8.59717C42.7925 8.59717 44.5131 8.97466 45.9877 9.74547C47.4575 10.5041 48.6618 11.5331 49.6092 12.8214C50.5553 14.1085 51.2287 15.5795 51.6501 17.2283C52.0665 18.8758 52.2139 20.5965 52.0933 22.3987H35.3376C35.3376 24.2338 35.9587 25.9714 36.917 26.9042Z" fill="black"/>
<path d="M61.152 0.404297V12.4961H61.2981C62.1079 11.1506 63.132 10.1728 64.3911 9.56633C65.6477 8.95504 66.874 8.65305 68.0686 8.65305C69.7721 8.65305 71.1676 8.87711 72.2575 9.33862C73.3485 9.80866 74.2119 10.4443 74.8439 11.2711C75.4637 12.0943 75.9021 13.0989 76.159 14.2825C76.4111 15.4637 76.5414 16.7666 76.5414 18.2035V32.4726H70.1326V19.3616C70.1326 17.4498 69.8342 16.0129 69.24 15.0728C68.6445 14.1315 67.5876 13.6591 66.063 13.6591C64.3387 13.6591 63.0918 14.1814 62.3198 15.2128C61.5331 16.2442 61.152 17.9417 61.152 20.3041V32.4726H54.7456V0.404297H61.152Z" fill="black"/>
<path d="M93.6477 21.6863C93.2508 21.8178 92.8112 21.9286 92.3582 22.0248C91.8906 22.1137 91.4023 22.1856 90.8957 22.2489C90.394 22.3098 89.8777 22.3792 89.3772 22.4693C88.8999 22.5631 88.4225 22.68 87.9683 22.8322C87.5056 22.9832 87.1001 23.1841 86.7665 23.4374C86.4206 23.6943 86.1454 24.0158 85.9348 24.4018C85.7302 24.789 85.6206 25.2919 85.6206 25.8862C85.6206 26.4536 85.7302 26.9322 85.9348 27.3255C86.1454 27.7152 86.4206 28.0196 86.7823 28.2449C87.1427 28.4702 87.5653 28.6285 88.0353 28.7161C88.5126 28.8111 89.0058 28.8464 89.5112 28.8464C90.7654 28.8464 91.7323 28.6382 92.4215 28.2205C93.1071 27.8004 93.6234 27.2987 93.9461 26.7142C94.2748 26.1297 94.4733 25.5404 94.5379 24.9461C94.6219 24.3482 94.6596 23.866 94.6596 23.5044V21.1189C94.3832 21.3636 94.0581 21.5524 93.6477 21.6863ZM81.0944 12.6509C81.7434 11.6634 82.58 10.8633 83.598 10.2654C84.616 9.66144 85.7533 9.23646 87.0319 8.98196C88.3056 8.72016 89.5794 8.59717 90.8726 8.59717C92.0355 8.59717 93.2118 8.67754 94.4234 8.84314C95.6155 9.00754 96.7054 9.33023 97.6942 9.81122C98.6817 10.2947 99.4866 10.9559 100.11 11.8192C100.742 12.6607 101.062 13.8004 101.062 15.213V27.3146C101.062 28.3667 101.126 29.3664 101.238 30.3235C101.364 31.2892 101.692 32.0137 102.001 32.4886L95.4865 32.4728C95.2953 32.1951 95.137 31.7604 95.0627 31.3817C94.9872 31.0115 94.9348 30.6304 94.9056 30.2395C93.8913 31.2892 92.7016 32.0271 91.3158 32.4484C89.941 32.8637 88.5394 33.0743 87.1001 33.0743C85.9969 33.0743 84.9691 32.9343 84.0071 32.664C83.0597 32.3936 82.2183 31.9747 81.5011 31.4085C80.7802 30.8313 80.2261 30.1153 79.8219 29.2483C79.42 28.3764 79.213 27.3389 79.213 26.1407C79.213 24.8183 79.4505 23.7296 79.9193 22.8772C80.3759 22.0248 80.9689 21.3393 81.7105 20.8315C82.4399 20.32 83.2777 19.9353 84.2263 19.6844C85.1664 19.4311 86.1211 19.2217 87.0672 19.0743C88.028 18.927 88.9632 18.8077 89.8972 18.7151C90.8336 18.6238 91.6446 18.4935 92.3691 18.3108C93.0839 18.133 93.6562 17.8627 94.0764 17.5205C94.4892 17.1771 94.6876 16.6779 94.6596 16.013C94.6596 15.3262 94.5379 14.7783 94.3175 14.3691C94.0958 13.966 93.7963 13.6555 93.4298 13.429C93.0535 13.2025 92.6297 13.054 92.1414 12.9748C91.6446 12.903 91.1185 12.8628 90.5572 12.8628C89.309 12.8628 88.3215 13.1404 87.6213 13.6738C86.9016 14.223 86.4876 15.1265 86.3597 16.3881H79.9619C80.0544 14.8818 80.4246 13.6385 81.0944 12.6509Z" fill="black"/>
<path d="M110.627 9.25974V12.4964H110.77C111.577 11.1508 112.618 10.173 113.911 9.5666C115.194 8.95531 116.522 8.65332 117.869 8.65332C119.58 8.65332 120.984 8.87738 122.069 9.33889C123.173 9.80893 124.032 10.4446 124.654 11.2714C125.292 12.0946 125.73 13.0992 125.986 14.2828C126.244 15.464 126.372 16.7669 126.372 18.2038V32.4729H119.961V19.3618C119.961 17.45 119.66 16.0131 119.062 15.0731C118.456 14.1318 117.41 13.5278 115.874 13.5278C114.139 13.5278 112.875 14.1817 112.098 15.2131C111.316 16.2445 110.929 17.942 110.929 20.3044V32.4729H104.587V9.25974H110.627Z" fill="black"/>
<path d="M140.564 13.412C139.538 13.412 138.692 13.6385 138.011 14.1085C137.316 14.5773 136.748 15.1716 136.315 15.9083C135.88 16.6401 135.579 17.4499 135.393 18.3364C135.219 19.2217 135.122 20.0984 135.122 20.9703C135.122 21.813 135.219 22.6666 135.393 23.5384C135.579 24.4055 135.866 25.1884 136.27 25.902C136.68 26.601 137.226 27.1757 137.915 27.6299C138.601 28.0817 139.435 28.307 140.425 28.307C141.96 28.307 143.137 27.8784 143.961 27.0296C144.782 26.176 145.289 25.0289 145.504 23.592H151.663C151.24 26.6716 150.042 29.0242 148.071 30.6462C146.092 32.2572 143.558 33.0743 140.472 33.0743C138.728 33.0743 137.144 32.7772 135.683 32.1951C134.224 31.6045 132.986 30.7911 131.965 29.7415C130.945 28.6894 130.153 27.4388 129.574 25.9848C129.007 24.5284 128.723 22.9296 128.723 21.1944C128.723 19.397 128.987 17.7227 129.512 16.175C130.034 14.6333 130.806 13.2975 131.835 12.1772C132.854 11.0496 134.101 10.1729 135.576 9.54211C137.044 8.91255 138.722 8.59717 140.606 8.59717C141.985 8.59717 143.308 8.78348 144.587 9.13174C145.856 9.48731 146.997 10.0365 147.998 10.7732C149.001 11.5051 149.823 12.4171 150.453 13.5045C151.075 14.5919 151.43 15.8949 151.529 17.3842H145.275C144.861 14.7344 143.29 13.412 140.564 13.412Z" fill="black"/>
<path d="M34.0334 2.55615H47.0325V5.72098H34.0334V2.55615Z" fill="black"/>
<path d="M168.66 14.7052C167.891 13.8662 166.598 13.412 165.052 13.412C164.034 13.412 163.187 13.5837 162.501 13.9332C161.839 14.2778 161.235 14.7076 160.83 15.213C160.424 15.7269 160.133 16.2687 159.964 16.8484C159.813 17.4134 159.707 17.926 159.679 18.379H170.134C169.964 16.7522 169.421 15.5503 168.66 14.7052ZM161.252 26.9042C162.211 27.837 163.657 28.307 165.46 28.307C166.743 28.307 167.852 27.9819 168.779 27.3328C169.706 26.6862 170.28 25.9933 170.485 25.2749H176.101C175.204 28.0695 173.825 30.0654 171.968 31.266C170.115 32.4728 167.872 33.0743 165.238 33.0743C163.404 33.0743 161.752 32.7772 160.286 32.1951C158.811 31.6045 157.575 30.7765 156.541 29.6976C155.518 28.6139 154.734 27.3328 154.176 25.829C153.622 24.3324 153.347 22.6751 153.347 20.879C153.347 19.1425 153.632 17.5205 154.199 16.0215C154.774 14.5177 155.591 13.2196 156.637 12.131C157.698 11.0362 158.938 10.1729 160.39 9.54211C161.849 8.91255 163.469 8.59717 165.238 8.59717C167.2 8.59717 168.928 8.97466 170.388 9.74547C171.861 10.5041 173.071 11.5331 174.012 12.8214C174.958 14.1085 175.638 15.5795 176.056 17.2283C176.468 18.8758 176.626 20.5965 176.508 22.3987H159.679C159.679 24.2338 160.292 25.9714 161.252 26.9042Z" fill="black"/>
</svg>
