<svg width="178" height="45" viewBox="0 0 178 45" fill="none" xmlns="http://www.w3.org/2000/svg">
<g clip-path="url(#clip0_127_301)">
<path d="M126.544 17.6064C123.945 17.6064 122.089 18.4943 121.179 20.1757L120.69 21.0863V18.0447H116.46V36.5322H120.909V25.5334C120.909 22.9055 122.337 21.398 124.825 21.398C127.198 21.398 128.558 22.8659 128.558 25.4238V36.5322H133.009V24.6304C133.009 20.2286 130.593 17.6064 126.544 17.6064ZM104.968 17.6064C99.7177 17.6064 96.4664 20.8822 96.4664 26.1549V28.7507C96.4664 33.8212 99.7555 36.9705 105.051 36.9705C108.593 36.9705 111.075 35.6726 112.638 33.0032L109.88 31.4163C108.725 32.956 106.881 33.91 105.053 33.91C102.372 33.91 100.772 32.2551 100.772 29.4818V28.7469H113.189V25.6807C113.189 20.7689 109.965 17.6064 104.972 17.6064H104.968ZM109.141 25.7582H100.757V25.3142C100.757 22.2708 102.251 20.5913 104.964 20.5913C107.577 20.5913 109.137 22.2462 109.137 25.0195L109.141 25.7582ZM177.193 15.0012V11.4647H161.804V15.0012H167.199V32.9881H161.804V36.5246H177.193V32.9881H171.796V15.0012H177.193ZM60.5059 10.9546C53.6331 10.9546 49.3597 15.2374 49.3597 22.1348V25.864C49.3597 32.7595 53.6312 37.0442 60.5059 37.0442C67.3806 37.0442 71.6521 32.7595 71.6521 25.864V22.1348C71.6502 15.2298 67.3731 10.9546 60.5059 10.9546ZM67.0538 26.119C67.0538 30.6984 64.6678 33.3244 60.5059 33.3244C56.344 33.3244 53.9599 30.6984 53.9599 26.119V21.8778C53.9599 17.2985 56.3478 14.6725 60.5078 14.6725C64.6678 14.6725 67.0557 17.2985 67.0557 21.8778L67.0538 26.119ZM85.6263 17.6064C83.2913 17.6064 81.2699 18.5737 80.2157 20.1927L79.7378 20.9295V18.0447H75.506V42.8931H79.9569V33.893L80.433 34.5996C81.4342 36.0845 83.3895 36.9705 85.6641 36.9705C89.501 36.9705 93.372 34.4635 93.372 28.8602V25.7166C93.372 21.6795 90.9859 17.6064 85.6263 17.6064ZM88.9211 28.643C88.9211 31.6222 87.183 33.4736 84.387 33.4736C81.78 33.4736 79.9607 31.5164 79.9607 28.7167V25.9358C79.9607 23.102 81.7951 21.107 84.4248 21.107C87.2 21.107 88.9248 22.9566 88.9248 25.9358L88.9211 28.643ZM145.307 11.4666L136.328 36.5322H140.849L142.568 31.1594H152.891L152.908 31.2123L154.608 36.5322H159.127L150.132 11.4647L145.307 11.4666ZM143.671 27.6247L147.722 14.9521L151.731 27.6247H143.671Z" fill="black"/>
<path d="M40.6581 18.4645C41.6437 15.5061 41.3049 12.2664 39.7286 9.57586C37.3557 5.4521 32.5927 3.3309 27.9402 4.32583C25.871 1.99228 22.8958 0.664746 19.777 0.683297C15.0181 0.672659 10.7975 3.7379 9.33552 8.26666C6.28075 8.89329 3.64449 10.8066 2.10185 13.5167C-0.283592 17.6337 0.260654 22.8197 3.44883 26.3518C2.46718 29.3074 2.80584 32.5427 4.37831 35.2309C6.7491 39.3629 11.518 41.4896 16.1762 40.4923C18.2435 42.823 21.2146 44.1502 24.3299 44.1348C29.0888 44.1455 33.3094 41.0802 34.7714 36.5515C37.8256 35.9246 40.4612 34.0112 42.0032 31.3014C44.395 27.1854 43.8512 21.9953 40.6581 18.4645ZM24.3299 41.3009C22.4252 41.3025 20.5806 40.6337 19.1196 39.4117C19.1838 39.3758 19.3085 39.3134 19.3803 39.2662L28.0327 34.2712C28.4747 34.0201 28.7465 33.5497 28.7431 33.0414V20.841L32.3986 22.9513C32.4388 22.9703 32.4661 23.009 32.4704 23.0533V33.1509C32.4704 37.6483 28.8273 41.2957 24.3299 41.3009ZM6.83802 33.831C5.8842 32.1827 5.53983 30.2516 5.86509 28.3751C5.92932 28.4148 6.04268 28.4828 6.12202 28.5281L14.7764 33.525C15.2151 33.7819 15.7583 33.7819 16.197 33.525L26.7556 27.4192V31.6396C26.7596 31.6837 26.7403 31.7267 26.7046 31.7529L17.9577 36.8008C14.0637 39.043 9.0895 37.7103 6.83802 33.8216V33.831ZM4.571 14.9392C5.52036 13.2884 7.02049 12.0243 8.80843 11.3687V21.6534C8.80584 22.1615 9.07734 22.6316 9.51877 22.8832L20.0793 28.9815L16.4105 31.0993C16.3742 31.1238 16.3279 31.128 16.2877 31.1106L7.54268 26.0609C3.65197 23.81 2.3189 18.8336 4.56345 14.9392H4.571ZM34.609 21.9292L24.0485 15.8309L27.7002 13.7188C27.7367 13.6947 27.7828 13.6905 27.823 13.7075L36.568 18.7573C39.3024 20.3372 40.8766 23.3557 40.6071 26.5022C40.3377 29.6487 38.2731 32.3556 35.3099 33.4475V23.1647C35.3157 22.6553 35.0453 22.1826 34.6033 21.9292H34.609ZM38.2494 16.4506C38.1852 16.4109 38.0718 16.3429 37.9925 16.2976L29.3382 11.3007C28.8995 11.0437 28.3562 11.0437 27.9175 11.3007L17.3569 17.3971V13.1785C17.3555 13.1345 17.3751 13.0923 17.4099 13.0652L26.1549 8.01729C28.8903 6.44052 32.2906 6.58723 34.8801 8.39375C37.4695 10.2003 38.7811 13.3409 38.2456 16.4525L38.2494 16.4506ZM15.3639 23.9771L11.7064 21.8669C11.6683 21.8458 11.6424 21.808 11.6365 21.7649V11.6672C11.6341 8.50767 13.4602 5.63213 16.3208 4.29067C19.1814 2.94922 22.5598 3.38417 24.9874 5.40644C24.9231 5.44234 24.8079 5.50468 24.7267 5.55191L16.0742 10.5469C15.6328 10.7986 15.3613 11.2686 15.3639 11.7768V23.9771ZM17.3494 19.6943L22.0535 16.9777L26.7556 19.6943V25.1238L22.0516 27.8405L17.3475 25.1238L17.3494 19.6943Z" fill="black"/>
</g>
<defs>
<clipPath id="clip0_127_301">
<rect width="176.568" height="43.4522" fill="white" transform="translate(0.625244 0.683105)"/>
</clipPath>
</defs>
</svg>
