<svg width="178" height="32" viewBox="0 0 178 32" fill="none" xmlns="http://www.w3.org/2000/svg">
<g clip-path="url(#clip0_127_242)">
<path d="M164.689 2.17432L164.73 2.17501L164.843 2.18039C165.408 2.21918 165.948 2.43579 166.387 2.80744L166.474 2.88383L166.556 2.9628L176.273 12.7244C177.246 13.702 177.255 15.2293 176.312 16.235L176.246 16.3027L176.178 16.3675L166.104 25.7047C165.085 26.6495 163.515 26.6782 162.486 25.785L162.415 25.7212L162.347 25.6553L156.718 20.0038C156.641 19.9271 156.654 19.7997 156.744 19.7393C157.932 18.9415 158.797 17.7502 159.171 16.383L159.207 16.2457L159.241 16.1014C159.257 16.0333 159.312 15.9826 159.379 15.971L159.409 15.9685H163.608C163.693 15.9685 163.763 16.0294 163.777 16.1098L163.78 16.1407V17.7714C163.78 18.2664 164.151 18.6758 164.629 18.7317L164.687 18.7367L164.747 18.7384H166.814C167.308 18.7384 167.718 18.3681 167.774 17.8893L167.779 17.8314L167.781 17.7714V16.1407C167.781 16.0562 167.841 15.9859 167.922 15.9713L167.953 15.9685H168.69C169.194 15.9685 169.606 15.5955 169.662 15.1083L169.666 15.0493L169.668 14.9903V13.9181C169.668 13.4116 169.293 12.9919 168.807 12.9354L168.749 12.9304L168.69 12.9287H159.185C159.113 12.9287 159.049 12.8838 159.024 12.8161C158.528 11.4704 157.545 10.3442 156.271 9.64803L156.143 9.57986L156.014 9.51511C155.916 9.4661 155.891 9.34212 155.953 9.25861L155.974 9.23488L162.798 2.91333C163.257 2.4879 163.838 2.23421 164.443 2.18662L164.559 2.17843L164.648 2.17465L164.689 2.17432ZM153.288 11.9301C154.939 11.9301 156.278 13.2428 156.278 14.8637C156.278 16.4847 154.939 17.7973 153.288 17.7973C151.638 17.7973 150.299 16.4847 150.299 14.8637C150.299 13.2428 151.638 11.9301 153.288 11.9301Z" fill="black"/>
<path d="M9.59678 6.73999C12.3534 6.73999 14.5043 7.55144 16.0494 9.1743C17.5944 10.7972 18.367 13.0592 18.367 15.9603C18.367 17.1497 18.2058 18.2446 17.8834 19.245C17.5611 20.2343 17.072 21.1402 16.4162 21.9628C15.6381 22.952 14.7044 23.6634 13.6151 24.0969C12.5257 24.5193 11.0807 24.7305 9.27998 24.7305H5.19501V31.2498H0.443115V6.73999H9.59678ZM112.755 6.42319C115.645 6.42319 117.951 7.27355 119.674 8.97422C121.408 10.6638 122.275 12.9202 122.275 15.7436C122.275 18.567 121.414 20.8234 119.691 22.513C117.979 24.1914 115.667 25.0306 112.755 25.0306C109.842 25.0306 107.519 24.1859 105.785 22.4963C104.051 20.8067 103.184 18.5558 103.184 15.7436C103.184 12.9202 104.051 10.6638 105.785 8.97422C107.519 7.27355 109.842 6.42319 112.755 6.42319ZM31.3888 6.73999C33.8454 6.73999 35.6961 7.3069 36.9411 8.44067C38.186 9.56336 38.8085 11.2362 38.8085 13.4593V24.7305H26.0367C24.2471 24.7305 22.8688 24.2803 21.9017 23.38C20.9458 22.4796 20.4678 21.2013 20.4678 19.5451C20.4678 17.4999 21.018 16.0326 22.1185 15.1434C23.23 14.2541 25.0696 13.8095 27.6373 13.8095H33.8898V13.3593C33.8898 12.2922 33.573 11.5419 32.9395 11.1084C32.317 10.6749 31.1999 10.4582 29.5881 10.4581H21.6516V6.73999H31.3888ZM58.9332 6.73999V10.4915H50.5465C49.1793 10.4915 48.2901 10.6138 47.8788 10.8583C47.4675 11.0917 47.2619 11.5141 47.2619 12.1255C47.2619 12.6813 47.4397 13.0925 47.7954 13.3593C48.1622 13.615 48.7347 13.7428 49.5128 13.7428H53.8145C55.7819 13.7428 57.2825 14.2041 58.3163 15.1267C59.35 16.0382 59.8669 17.3609 59.8669 19.0949C59.8669 20.7623 59.4056 22.1184 58.483 23.1632C57.5715 24.2081 56.3933 24.7305 54.9483 24.7305H42.6767V20.979H52.6974C53.5866 20.979 54.2313 20.8401 54.6315 20.5622C55.0427 20.2843 55.2484 19.8397 55.2484 19.2283C55.2484 18.617 55.0427 18.1723 54.6315 17.8944C54.2202 17.6055 53.5755 17.461 52.6974 17.4609H48.5957C46.1614 17.461 44.5163 17.0886 43.6604 16.3438C42.8045 15.5991 42.3766 14.2763 42.3766 12.3756C42.3766 10.4415 42.8934 9.01869 43.9272 8.1072C44.9609 7.19575 46.5616 6.73999 48.7291 6.73999H58.9332ZM79.208 6.73999V10.4915H70.8213C69.4541 10.4915 68.5648 10.6138 68.1536 10.8583C67.7423 11.0917 67.5367 11.5141 67.5367 12.1255C67.5367 12.6813 67.7145 13.0925 68.0702 13.3593C68.437 13.615 69.0095 13.7428 69.7876 13.7428H74.0893C76.0567 13.7428 77.5573 14.2041 78.5911 15.1267C79.6248 16.0382 80.1417 17.3609 80.1417 19.0949C80.1417 20.7623 79.6804 22.1184 78.7578 23.1632C77.8463 24.2081 76.6681 24.7305 75.2231 24.7305H62.9515V20.979H72.9722C73.8614 20.979 74.5061 20.8401 74.9063 20.5622C75.3175 20.2843 75.5232 19.8397 75.5232 19.2283C75.5232 18.617 75.3175 18.1723 74.9063 17.8944C74.495 17.6055 73.8503 17.461 72.9722 17.4609H68.8705C66.4362 17.461 64.7911 17.0886 63.9352 16.3438C63.0793 15.5991 62.6514 14.2763 62.6514 12.3756C62.6514 10.4415 63.1682 9.01869 64.202 8.1072C65.2357 7.19575 66.8364 6.73999 69.0039 6.73999H79.208ZM88.295 0.220703V6.73999H92.3799C94.1806 6.74 95.6257 6.95676 96.715 7.39024C97.8043 7.81266 98.738 8.51849 99.5161 9.50776C100.172 10.3303 100.661 11.2418 100.983 12.2422C101.306 13.2315 101.467 14.3208 101.467 15.5102C101.467 18.4002 100.694 20.6622 99.1493 22.2962C97.6042 23.9191 95.4534 24.7305 92.6967 24.7305H83.5431V0.220703H88.295ZM130.078 0.220703V24.7305H125.126V0.220703H130.078ZM140.449 0.220703V6.73999H145.468V10.3248H140.449V17.5943C140.449 18.9282 140.677 19.8564 141.133 20.3788C141.589 20.8901 142.383 21.1458 143.517 21.1458H145.468V24.7305H141.133C139.377 24.7305 138.032 24.247 137.098 23.2799C136.164 22.3018 135.697 20.9068 135.697 19.0949V10.3248H132.346V6.73999H135.697V0.220703H140.449ZM112.721 10.3248C111.299 10.3248 110.182 10.8027 109.37 11.7587C108.57 12.7146 108.17 14.0429 108.17 15.7436C108.17 17.4554 108.57 18.7893 109.37 19.7452C110.17 20.7011 111.288 21.1791 112.721 21.1791C114.144 21.1791 115.261 20.7011 116.073 19.7452C116.884 18.7893 117.29 17.4554 117.29 15.7436C117.29 14.0318 116.884 12.7035 116.073 11.7587C115.272 10.8027 114.155 10.3248 112.721 10.3248ZM33.9232 17.3943H28.3209C27.2094 17.3943 26.4424 17.5443 26.02 17.8444C25.5976 18.1446 25.3864 18.667 25.3864 19.4117C25.3864 20.0453 25.5532 20.4899 25.8866 20.7456C26.2312 20.9901 26.9259 21.1124 27.9708 21.1124H33.9232V17.3943ZM8.46299 10.6249H5.19501V20.879H8.09617C10.0192 20.879 11.3808 20.4733 12.1811 19.6618C12.9815 18.8504 13.3816 17.4999 13.3816 15.6102C13.3816 13.7873 13.0148 12.5034 12.2812 11.7587C11.5475 11.0028 10.2748 10.6249 8.46299 10.6249ZM91.1961 10.6249H88.295V20.879H91.5629C93.3748 20.879 94.6475 20.5011 95.3811 19.7452C96.1148 18.9782 96.4816 17.6833 96.4816 15.8603C96.4816 13.9818 96.0759 12.6424 95.2644 11.842C94.4641 11.0306 93.108 10.6249 91.1961 10.6249Z" fill="black"/>
</g>
<defs>
<clipPath id="clip0_127_242">
<rect width="176.568" height="31.0373" fill="white" transform="translate(0.443115 0.220703)"/>
</clipPath>
</defs>
</svg>
