<svg width="178" height="37" viewBox="0 0 178 37" fill="none" xmlns="http://www.w3.org/2000/svg">
<g clip-path="url(#clip0_127_298)">
<path d="M90.843 21.9074C90.843 23.8725 90.188 25.5398 88.8779 26.8499C87.1511 28.5768 84.3523 29.5295 80.9581 29.47C78.5166 29.4104 76.0752 28.8149 74.7056 27.9813L75.5988 23.0984C77.0875 23.932 79.6481 24.7657 81.5536 24.7657C83.1614 24.7657 84.1737 24.0511 84.1737 22.8602C84.1737 21.7883 83.3996 21.0738 81.494 20.121C78.4571 18.6323 76.9684 16.7268 76.9684 14.464C76.9684 10.0574 80.7795 7.02052 86.4365 7.02052C89.4139 7.02052 91.3789 7.73509 92.4508 8.44966L91.5576 13.273C90.7239 12.618 88.5206 11.7248 86.1387 11.7248C84.4714 11.7248 83.3996 12.4394 83.3996 13.5708C83.3996 14.4044 84.2332 15.119 85.9601 16.0122C88.2825 17.2032 90.843 18.93 90.843 21.9074ZM177.366 26.433C177.485 24.9444 176.413 23.7534 174.924 23.7534C173.436 23.7534 172.126 24.9444 172.006 26.433C171.887 27.8026 172.84 29.1127 174.448 29.1127C175.937 29.1127 177.247 27.9217 177.366 26.433ZM177.008 26.433C176.889 27.6835 175.758 28.7554 174.448 28.7554C173.197 28.7554 172.304 27.7431 172.423 26.4926C172.542 25.2421 173.674 24.1702 174.984 24.1702C176.175 24.1702 177.068 25.1825 177.008 26.433ZM175.162 26.7903L175.579 28.0408H175.162L174.746 26.8499H174.15L173.912 28.0408H173.495L174.091 24.8848H175.103C175.579 24.8848 175.937 25.2421 175.937 25.6589C175.996 26.0758 175.698 26.6117 175.162 26.7903ZM175.162 25.2421H174.448L174.21 26.433H174.865C175.222 26.433 175.52 26.1353 175.579 25.778C175.639 25.5398 175.46 25.2421 175.162 25.2421ZM163.551 24.5275C166.23 24.5275 168.553 23.8725 171.054 22.4434L170.041 27.8026C167.004 29.3509 163.432 29.5295 162.062 29.5295C156.107 29.5295 152.773 26.2544 152.773 20.4783C152.773 17.1436 154.023 13.8089 156.107 11.3675C158.37 8.68785 161.764 7.13962 165.278 7.13962C169.744 7.13962 172.781 9.75971 172.781 13.6303C172.781 15.4167 172.185 16.9054 171.054 18.0368C168.91 20.121 163.61 21.3119 158.846 20.3592C158.549 22.9793 160.573 24.5275 163.551 24.5275ZM159.442 16.1313C163.193 16.1909 165.278 15.774 166.23 14.8808C167.243 13.8685 166.885 11.7843 164.444 11.7843C161.705 11.7843 159.918 14.0471 159.442 16.1313ZM134.432 17.0245L132.109 29.0531H126.036L126.81 24.8848C125.976 27.4454 123.892 29.5295 120.379 29.5295C116.151 29.5295 114.245 25.778 114.245 22.0265C114.245 17.7391 115.913 13.5112 118.711 10.7125C121.093 8.33057 124.13 7.08007 127.524 7.08007C133.539 7.13962 135.504 11.1889 134.432 17.0245ZM128.537 14.2853C128.477 12.7966 127.643 11.963 126.274 11.963C123.296 11.963 120.676 17.1436 120.676 20.7165C120.676 22.9793 121.51 24.3489 122.939 24.3489C125.262 24.3489 127.286 21.9074 127.941 18.3941C128.239 17.2032 128.596 15.2381 128.537 14.2853ZM36.476 17.0245L34.1537 29.0531H28.0798L28.8539 24.8848C28.0203 27.4454 25.9361 29.5295 22.4228 29.5295C18.1949 29.5295 16.2894 25.778 16.2894 22.0265C16.2894 17.7391 17.9567 13.5112 20.7555 10.7125C23.1374 8.33057 26.1743 7.08007 29.5685 7.08007C35.5828 7.13962 37.6074 11.1889 36.476 17.0245ZM30.6404 14.2853C30.5808 12.7966 29.7471 11.963 28.3776 11.963C25.4002 11.963 22.7801 17.1436 22.7801 20.7165C22.7801 22.9793 23.6137 24.3489 25.0429 24.3489C27.3652 24.3489 29.3899 21.9074 30.0449 18.3941C30.2831 17.2032 30.6404 15.2381 30.6404 14.2853ZM113.828 15.2976C113.828 20.5378 111.327 25.8971 106.802 28.279C105.134 29.1722 103.527 29.5295 102.157 29.5295C99.8942 29.5295 98.6437 28.6959 97.9292 27.3858L96.3214 35.9607H89.9498L95.3686 7.4969H100.966L100.311 10.9507C101.919 8.62831 104.241 7.08007 106.921 7.08007C111.089 7.08007 113.828 10.2956 113.828 15.2976ZM107.219 15.774C107.219 14.7617 106.98 12.3203 104.658 12.3203C102.276 12.3203 100.252 14.9999 99.4774 19.1087C99.1797 20.5378 98.4651 24.7062 101.383 24.7062C104.718 24.7062 107.219 19.9424 107.219 15.774ZM9.6796 12.2607L10.5728 7.4969H4.97534L0.807007 29.47H7.1786L8.90548 20.4187C9.91779 15.0594 12.9547 12.9157 17.3612 13.6303L18.6117 7.08007C14.8007 6.66323 11.2278 8.80695 9.6796 12.2607ZM60.831 29.0531L63.0343 17.5009L67.5599 29.0531H74.4079L69.7036 17.4414L78.2189 7.4969H71.2518L63.0343 17.3223L66.1903 0.648926H59.8782L54.4594 29.1127H60.831V29.0531ZM149.497 7.13962C141.518 7.13962 135.504 12.9753 135.504 20.7165C135.504 26.0758 139.077 29.5295 144.555 29.5295C146.937 29.5295 149.2 29.1127 150.688 28.3981L151.701 23.0388C149.736 23.9916 148.187 24.4084 146.341 24.4084C144.317 24.4084 142.173 23.277 142.173 20.0019C142.173 16.1909 144.853 12.2607 149.438 12.2607C150.807 12.2607 151.939 12.5584 152.951 13.0944L153.963 7.91373C152.773 7.43735 151.105 7.13962 149.497 7.13962ZM51.5416 7.13962C43.5622 7.13962 37.5479 12.9753 37.5479 20.7165C37.5479 26.0758 41.1207 29.5295 46.5991 29.5295C48.981 29.5295 51.2438 29.1127 52.7325 28.3981L53.7448 23.0388C51.7798 23.9916 50.2315 24.4084 48.3856 24.4084C46.3609 24.4084 44.2172 23.277 44.2172 20.0019C44.2172 16.1909 46.8969 12.2607 51.482 12.2607C52.8516 12.2607 53.983 12.5584 54.9953 13.0944L56.0077 7.91373C54.8167 7.43735 53.1494 7.13962 51.5416 7.13962Z" fill="black"/>
</g>
<defs>
<clipPath id="clip0_127_298">
<rect width="176.568" height="35.5205" fill="white" transform="translate(0.807129 0.648926)"/>
</clipPath>
</defs>
</svg>
