<svg width="178" height="38" viewBox="0 0 178 38" fill="none" xmlns="http://www.w3.org/2000/svg">
<g clip-path="url(#clip0_127_239)">
<path d="M36.689 26.1598L26.7263 37.074H8.39518L18.2586 26.1598H36.689ZM69.426 8.81961C76.1429 8.81961 78.4622 13.0941 78.6292 16.3694H72.7659C72.636 14.9631 71.5599 13.6863 69.3888 13.6863C67.4221 13.6863 66.3088 14.63 66.3088 15.8698C66.3088 19.6262 78.7219 15.8698 78.7219 25.0479C78.7219 29.0634 75.2893 32.2276 69.2218 32.2276C62.1711 32.2092 59.7775 28.6194 59.4806 24.4373H65.6408C65.7335 25.9361 66.8468 27.3426 69.3702 27.3426C71.6897 27.3426 72.8771 26.5283 72.8771 25.2885C72.8771 21.5322 60.4269 25.0665 60.4269 16.2029C60.4269 12.1504 63.8966 8.81961 69.426 8.81961ZM148.804 8.81961C155.78 8.81961 159.083 13.7233 159.51 17.5352H153.257C152.793 15.6107 150.993 14.2044 148.767 14.2044C145.52 14.2044 143.627 16.758 143.627 20.5144C143.627 24.2708 145.52 26.8245 148.767 26.8245C150.993 26.8245 152.793 25.418 153.257 23.4936H159.51C159.083 27.287 155.78 32.2092 148.804 32.2092C142.291 32.2092 137.541 27.1759 137.541 20.5144C137.541 13.8528 142.291 8.81961 148.804 8.81961ZM101.377 8.80109C108.02 8.80109 112.51 13.8343 112.51 20.4588C112.51 21.4395 112.418 22.2537 112.418 22.2537H96.1449C96.5718 25.3255 98.5385 26.9909 101.582 26.9909C103.419 26.9909 105.181 26.1767 105.905 24.5484H112.028C110.692 29.082 106.591 32.1907 101.415 32.1907C94.7719 32.1907 90.1148 27.324 90.1148 20.4588C90.1148 13.8343 94.7348 8.80109 101.377 8.80109ZM86.682 4.1195V9.31924H91.1538V14.2599H86.682V31.6911H80.5961V4.1195H86.682ZM127.039 8.81961C132.438 8.81961 135.296 12.4095 135.296 17.7387V31.6911H129.21V18.4049C129.21 15.7958 128.097 14.0008 125.406 14.0008C122.456 14.0008 120.823 15.8883 120.823 18.8675V31.6725H114.737V9.31922H120.359V12.0579C121.38 10.1334 123.699 8.81961 127.039 8.81961ZM167.859 9.3192V31.6911H161.773V9.3192H167.859ZM177.192 1.69539V31.6909H171.106V1.69539H177.192ZM48.4451 13.2244L38.4878 24.1386H0.624634L10.582 13.2244H48.4451ZM101.303 13.6862C98.5385 13.6862 96.7388 15.3516 96.2192 17.9053H106.406C105.979 15.3887 104.142 13.6862 101.303 13.6862ZM40.6741 0.289063L30.7574 11.2033H12.3804L22.3118 0.289063H40.6741ZM164.798 0.289062C166.932 0.289062 168.472 1.82493 168.472 3.95294C168.472 6.08093 166.932 7.57979 164.798 7.57979C162.682 7.57979 161.124 6.09945 161.124 3.95294C161.124 1.82493 162.664 0.289062 164.798 0.289062Z" fill="black"/>
</g>
<defs>
<clipPath id="clip0_127_239">
<rect width="176.568" height="36.8999" fill="white" transform="translate(0.625244 0.289062)"/>
</clipPath>
</defs>
</svg>
