<svg width="178" height="24" viewBox="0 0 178 24" fill="none" xmlns="http://www.w3.org/2000/svg">
<path d="M70.9151 2.94678V6.83113H65.0535V22.9072H60.5213V6.83113H54.6597V2.94678H70.9151ZM89.0365 2.94701V22.9072H84.4776V2.94701H89.0365ZM169.49 2.94678V18.9682H177.375V22.9072H164.931V2.94678H169.49ZM144.56 2.94678L152.783 22.9072H147.772L146.313 18.9687H137.897L136.426 22.9072H131.55L139.854 2.94678H144.56ZM111.599 2.94678C117.048 2.94678 122.471 5.83217 122.471 12.8728C122.471 19.509 117.156 22.9068 111.869 22.9068L104.213 22.907V2.94678H111.599ZM111.572 6.83113H108.637V18.9952H111.464C115.268 18.9952 117.804 16.6222 117.804 12.8456C117.804 9.25789 115.241 6.83113 111.572 6.83113ZM142.126 7.61603L139.119 15.4228H145.105L142.126 7.61603Z" fill="black"/>
<path d="M18.3349 11.698L24.1772 17.5406L18.3349 23.3834L12.4922 17.5406L18.3349 11.698ZM6.64963 0.0143949L12.4922 5.8556L6.64963 11.6984L0.807251 5.8556L6.64963 0.0143949ZM30.0194 0.0143949L35.8615 5.8556L30.0194 11.6984L24.1766 5.85572L18.3349 11.698L12.4922 5.85513L18.3349 0.0141602L24.1772 5.85513L30.0194 0.0143949Z" fill="black"/>
</svg>
