<svg width="178" height="41" viewBox="0 0 178 41" fill="none" xmlns="http://www.w3.org/2000/svg">
<g clip-path="url(#clip0_127_305)">
<path d="M158.042 0.591347C153.496 0.43458 148.95 1.84549 145.187 4.82407L147.695 6.23495C150.674 4.04023 154.436 3.09962 158.042 3.25639V0.591347Z" fill="black"/>
<path d="M171.368 6.54893C168.232 3.25681 164.156 1.21884 159.767 0.748535V3.41358C163.529 4.04065 166.822 5.76509 169.486 8.43013L171.368 6.54893Z" fill="black"/>
<path d="M177.011 19.4035C176.854 15.3276 175.286 11.2516 172.622 7.80273L170.74 9.68394C172.935 12.6626 174.189 15.9547 174.346 19.4035H177.011Z" fill="black"/>
<path d="M172.622 32.8854C175.286 29.4365 176.854 25.3606 177.011 21.2847H174.346C174.189 24.7335 172.935 28.0256 170.74 31.0042L172.622 32.8854Z" fill="black"/>
<path d="M159.767 39.9404C163.999 39.4701 168.232 37.4321 171.368 34.14L169.486 32.2588C166.822 35.0806 163.372 36.805 159.767 37.2753V39.9404Z" fill="black"/>
<path d="M145.187 35.864C148.95 38.8426 153.496 40.2535 158.042 40.0968V37.4317C154.436 37.5885 150.831 36.6478 147.695 34.4531L145.187 35.864Z" fill="black"/>
<path d="M10.3022 14.6129V30.8508H4.88948V14.6129H0.443359V10.0287H14.7483V14.6129H10.3022ZM21.1877 10.0287V21.3511C21.1877 21.9586 21.2061 22.5846 21.2429 23.2289C21.2981 23.8549 21.4362 24.4256 21.6571 24.9411C21.8965 25.4566 22.2647 25.88 22.7617 26.2114C23.2588 26.5244 23.9585 26.6809 24.8605 26.6809C25.7627 26.6809 26.4531 26.5244 26.9317 26.2114C27.4288 25.88 27.797 25.4566 28.0363 24.9411C28.2757 24.4256 28.4138 23.8549 28.4506 23.2289C28.5058 22.5846 28.5334 21.9586 28.5334 21.3511V10.0287H33.9185V22.0967C33.9185 25.3369 33.1728 27.7027 31.6816 29.1939C30.2088 30.6852 27.9351 31.4308 24.8605 31.4308C21.786 31.4308 19.5031 30.6852 18.0119 29.1939C16.5206 27.7027 15.775 25.3369 15.775 22.0967V10.0287H21.1877ZM42.3255 19.3351H43.3473C44.4151 19.3351 45.2343 19.1142 45.8051 18.6724C46.3758 18.2305 46.6612 17.5953 46.6612 16.7669C46.6612 15.9384 46.3758 15.3032 45.8051 14.8614C45.2343 14.4195 44.4151 14.1986 43.3473 14.1986H42.3255V19.3351ZM54.2277 30.8508H47.4896L42.3255 22.8423V30.8508H36.9128V10.0287H45.3356C46.4955 10.0287 47.508 10.2035 48.3733 10.5534C49.2386 10.8847 49.9474 11.345 50.4997 11.9341C51.0704 12.5233 51.4939 13.2045 51.7701 13.9777C52.0646 14.7509 52.2119 15.5794 52.2119 16.4631C52.2119 18.0464 51.8253 19.3351 51.0521 20.3293C50.2972 21.305 49.1742 21.9678 47.6829 22.3176L54.2277 30.8508ZM60.5235 26.6533H61.711C63.0737 26.6533 64.0493 26.4784 64.6383 26.1286C65.2277 25.7788 65.522 25.2173 65.522 24.444C65.522 23.6708 65.2277 23.1093 64.6383 22.7595C64.0493 22.4097 63.0737 22.2348 61.711 22.2348H60.5235V26.6533ZM60.5235 18.2029H61.5177C63.2118 18.2029 64.0583 17.5309 64.0583 16.1869C64.0583 14.843 63.2118 14.171 61.5177 14.171H60.5235V18.2029ZM55.1109 10.0287H63.1746C65.0897 10.0287 66.5437 10.4889 67.5379 11.4094C68.5321 12.3299 69.0291 13.6555 69.0291 15.3861C69.0291 16.4355 68.8358 17.31 68.4492 18.0096C68.0812 18.6908 67.5103 19.2707 66.737 19.7494C67.5103 19.8966 68.164 20.1268 68.6978 20.4398C69.2501 20.7343 69.6919 21.1025 70.0233 21.5444C70.3733 21.9862 70.6218 22.4833 70.7689 23.0356C70.9166 23.5879 70.9899 24.1771 70.9899 24.803C70.9899 25.7788 70.8151 26.6441 70.4652 27.3989C70.1338 28.1537 69.6553 28.7889 69.0291 29.3044C68.4216 29.8199 67.676 30.2065 66.7923 30.4642C65.9086 30.722 64.9144 30.8508 63.8098 30.8508H55.1109V10.0287ZM77.4115 20.4398C77.4115 21.2682 77.5677 22.0323 77.881 22.7319C78.1938 23.4314 78.6171 24.039 79.1513 24.5545C79.6851 25.07 80.3016 25.475 81.0016 25.7696C81.7196 26.0457 82.4742 26.1838 83.2661 26.1838C84.0574 26.1838 84.803 26.0457 85.5029 25.7696C86.2209 25.475 86.8465 25.07 87.3808 24.5545C87.9331 24.039 88.3654 23.4314 88.6787 22.7319C88.9915 22.0323 89.1482 21.2682 89.1482 20.4398C89.1482 19.6113 88.9915 18.8472 88.6787 18.1477C88.3654 17.4481 87.9331 16.8405 87.3808 16.325C86.8465 15.8095 86.2209 15.4137 85.5029 15.1376C84.803 14.843 84.0574 14.6957 83.2661 14.6957C82.4742 14.6957 81.7196 14.843 81.0016 15.1376C80.3016 15.4137 79.6851 15.8095 79.1513 16.325C78.6171 16.8405 78.1938 17.4481 77.881 18.1477C77.5677 18.8472 77.4115 19.6113 77.4115 20.4398ZM71.7503 20.4398C71.7503 18.8933 72.0355 17.4573 72.6064 16.1317C73.1768 14.7877 73.9686 13.6187 74.9814 12.6245C75.9936 11.6304 77.1997 10.8571 78.599 10.3048C80.0164 9.73407 81.572 9.44873 83.2661 9.44873C84.9411 9.44873 86.4875 9.73407 87.9055 10.3048C89.3229 10.8571 90.538 11.6304 91.5508 12.6245C92.5816 13.6187 93.3824 14.7877 93.9533 16.1317C94.5237 17.4573 94.8094 18.8933 94.8094 20.4398C94.8094 21.9862 94.5237 23.4314 93.9533 24.7754C93.3824 26.101 92.5816 27.2608 91.5508 28.255C90.538 29.2491 89.3229 30.0316 87.9055 30.6023C86.4875 31.1546 84.9411 31.4308 83.2661 31.4308C81.572 31.4308 80.0164 31.1546 78.599 30.6023C77.1997 30.0316 75.9936 29.2491 74.9814 28.255C73.9686 27.2608 73.1768 26.101 72.6064 24.7754C72.0355 23.4314 71.7503 21.9862 71.7503 20.4398ZM102.26 19.3351H103.282C104.35 19.3351 105.169 19.1142 105.74 18.6724C106.31 18.2305 106.596 17.5953 106.596 16.7669C106.596 15.9384 106.31 15.3032 105.74 14.8614C105.169 14.4195 104.35 14.1986 103.282 14.1986H102.26V19.3351ZM114.163 30.8508H107.424L102.26 22.8423V30.8508H96.8476V10.0287H105.27C106.43 10.0287 107.442 10.2035 108.308 10.5534C109.173 10.8847 109.882 11.345 110.435 11.9341C111.005 12.5233 111.429 13.2045 111.705 13.9777C111.999 14.7509 112.147 15.5794 112.147 16.4631C112.147 18.0464 111.76 19.3351 110.987 20.3293C110.232 21.305 109.109 21.9678 107.618 22.3176L114.163 30.8508ZM126.893 14.6129H120.458V18.0924H126.534V22.6766H120.458V26.2667H126.893V30.8508H115.046V10.0287H126.893V14.6129ZM134.827 19.5837H136.622C138.61 19.5837 139.605 18.7184 139.605 16.9878C139.605 15.2572 138.61 14.3919 136.622 14.3919H134.827V19.5837ZM134.827 30.8508H129.414V10.0287H138.031C140.369 10.0287 142.154 10.6362 143.388 11.8513C144.64 13.0664 145.266 14.7785 145.266 16.9878C145.266 19.1971 144.64 20.9092 143.388 22.1243C142.154 23.3394 140.369 23.9469 138.031 23.9469H134.827V30.8508ZM151.472 20.4398C151.472 21.2682 151.629 22.0323 151.941 22.7319C152.254 23.4314 152.678 24.039 153.212 24.5545C153.745 25.07 154.363 25.475 155.062 25.7696C155.78 26.0457 156.535 26.1838 157.326 26.1838C158.118 26.1838 158.864 26.0457 159.563 25.7696C160.281 25.475 160.907 25.07 161.441 24.5545C161.993 24.039 162.426 23.4314 162.739 22.7319C163.052 22.0323 163.209 21.2682 163.209 20.4398C163.209 19.6113 163.052 18.8472 162.739 18.1477C162.426 17.4481 161.993 16.8405 161.441 16.325C160.907 15.8095 160.281 15.4137 159.563 15.1376C158.864 14.843 158.118 14.6957 157.326 14.6957C156.535 14.6957 155.78 14.843 155.062 15.1376C154.363 15.4137 153.745 15.8095 153.212 16.325C152.678 16.8405 152.254 17.4481 151.941 18.1477C151.629 18.8472 151.472 19.6113 151.472 20.4398ZM145.811 20.4398C145.811 18.8933 146.096 17.4573 146.667 16.1317C147.238 14.7877 148.029 13.6187 149.042 12.6245C150.054 11.6304 151.26 10.8571 152.659 10.3048C154.077 9.73407 155.633 9.44873 157.326 9.44873C159.002 9.44873 160.548 9.73407 161.966 10.3048C163.383 10.8571 164.598 11.6304 165.611 12.6245C166.642 13.6187 167.443 14.7877 168.014 16.1317C168.585 17.4573 168.87 18.8933 168.87 20.4398C168.87 21.9862 168.585 23.4314 168.014 24.7754C167.443 26.101 166.642 27.2608 165.611 28.255C164.598 29.2491 163.383 30.0316 161.966 30.6023C160.548 31.1546 159.002 31.4308 157.326 31.4308C155.633 31.4308 154.077 31.1546 152.659 30.6023C151.26 30.0316 150.054 29.2491 149.042 28.255C148.029 27.2608 147.238 26.101 146.667 24.7754C146.096 23.4314 145.811 21.9862 145.811 20.4398Z" fill="black"/>
</g>
<defs>
<clipPath id="clip0_127_305">
<rect width="176.568" height="39.6588" fill="white" transform="translate(0.443115 0.57959)"/>
</clipPath>
</defs>
</svg>
