<svg width="178" height="47" viewBox="0 0 178 47" fill="none" xmlns="http://www.w3.org/2000/svg">
<g clip-path="url(#clip0_127_292)">
<path d="M41.9489 7.30215C41.9489 9.60183 40.9161 11.6451 39.3421 12.8846L24.0622 26.5307C23.7784 26.7739 23.4095 26.3817 23.6142 26.0543L29.219 14.8326C29.3761 14.5184 29.1724 14.1323 28.8501 14.1323H7.11105C3.74413 14.1323 0.98938 11.0593 0.98938 7.30417C0.98938 3.54806 3.74413 0.476075 7.11105 0.476075H35.8272C39.1941 0.474049 41.9489 3.54705 41.9489 7.30215ZM7.11105 46.1282H35.8272C39.1941 46.1282 41.9489 43.0552 41.9489 39.3001C41.9489 35.5439 39.1941 32.472 35.8272 32.472H14.0881C13.7658 32.472 13.5621 32.0858 13.7192 31.7716L19.324 20.5499C19.5287 20.2225 19.1598 19.8303 18.876 20.0735L3.59616 33.7176C2.02216 34.9561 0.98938 37.0004 0.98938 39.3001C0.98938 43.0552 3.74413 46.1282 7.11105 46.1282ZM60.0676 33.5453L72.7143 15.3424V15.1843H61.2494V10.2201H80.5154V13.6873L68.1443 31.654V31.8122H80.713V36.7764H60.0676V33.5453ZM94.424 10.2201V25.508C94.424 30.078 96.1571 32.403 99.2311 32.403C102.383 32.403 104.116 30.1966 104.116 25.508V10.2201H110.105V25.1128C110.105 33.3081 105.968 37.2081 99.0335 37.2081C92.3351 37.2081 88.3955 33.5047 88.3955 25.0337V10.2201H94.424ZM119.246 10.2201H125.275V31.7321H135.833V36.7754H119.246V10.2201ZM149.348 10.2201V36.7754H143.319V10.2201H149.348ZM158.488 10.5748C160.339 10.2596 162.94 10.0235 166.604 10.0235C170.307 10.0235 172.948 10.7329 174.72 12.1508C176.415 13.4907 177.557 15.6972 177.557 18.2968C177.557 20.8975 176.691 23.104 175.115 24.6009C173.066 26.5317 170.032 27.3983 166.486 27.3983C165.699 27.3983 164.989 27.3587 164.438 27.2797V36.7754H158.489V10.5748H158.488ZM164.437 22.6317C164.949 22.7503 165.579 22.7888 166.447 22.7888C169.638 22.7888 171.608 21.1732 171.608 18.4549C171.608 16.0124 169.913 14.5539 166.919 14.5539C165.698 14.5539 164.871 14.6725 164.437 14.79V22.6317Z" fill="black"/>
</g>
<defs>
<clipPath id="clip0_127_292">
<rect width="176.568" height="45.8662" fill="white" transform="translate(0.989258 0.476074)"/>
</clipPath>
</defs>
</svg>
